<svg width="196" height="68" viewBox="0 0 196 68" fill="none" xmlns="http://www.w3.org/2000/svg">
<path d="M61.5842 51.1879C61.6269 49.3976 61.6482 48.1188 61.6482 47.3516C61.5628 47.3942 61.3279 47.6073 60.9436 47.9909C60.602 48.3746 60.3671 48.6303 60.239 48.7582C60.1536 48.8435 59.9401 49.0779 59.5985 49.4615C59.2995 49.8025 59.086 50.0796 58.9579 50.2927C58.8298 50.4632 58.6163 50.7403 58.3174 51.1239C58.0184 51.4649 57.8049 51.7633 57.6768 52.0191C57.5487 52.2748 57.3779 52.6158 57.1644 53.0421C56.9509 53.4257 56.78 53.7881 56.6519 54.1291C56.5238 54.4701 56.3957 54.8537 56.2676 55.28C56.1822 55.7062 56.0968 56.1325 56.0114 56.5587C55.8406 57.5817 55.8619 58.3916 56.0754 58.9884C56.289 59.5852 56.6306 59.8835 57.1003 59.8835C57.7409 59.8409 58.3601 59.3933 58.9579 58.5408C59.5558 57.6457 60.0255 56.644 60.3671 55.5357C60.7514 54.3848 61.1571 52.9355 61.5842 51.1879ZM88.1669 51.8273C88.2096 58.9458 88.7647 63.8477 89.8323 66.5332C87.0993 65.4675 82.5728 65.3823 76.2527 66.2774C74.9289 66.4479 73.7973 66.5758 72.8578 66.661C71.9183 66.7463 70.8935 66.7889 69.7832 66.7889C68.7156 66.7463 67.8188 66.6184 67.0929 66.4053C66.3669 66.1922 65.6196 65.8512 64.851 65.3823C64.125 64.8708 63.5271 64.2314 63.0574 63.4641C62.6304 62.6968 62.2674 61.7378 61.9685 60.5869C61.7123 59.3933 61.5842 58.0293 61.5842 56.4948C61.1571 57.9867 60.7087 59.2868 60.239 60.3951C59.812 61.4607 59.2141 62.569 58.4455 63.7199C57.7195 64.8708 56.78 65.7659 55.6271 66.4053C54.5168 67.002 53.2143 67.3004 51.7197 67.3004C49.3283 67.3004 47.428 66.4692 46.0188 64.8068C44.6523 63.1018 44.0331 61.0984 44.1612 58.7966C44.3321 56.4522 45.2502 54.4274 46.9156 52.7224C48.1113 51.4863 49.6059 50.4206 51.3994 49.5255C53.193 48.5877 54.773 47.9057 56.1395 47.4794C57.5487 47.0532 58.8511 46.4138 60.0468 45.5613C61.2852 44.6661 62.0752 43.5366 62.4169 42.1725C62.7585 40.7659 62.6944 39.4658 62.2247 38.2723C61.7977 37.0361 60.8582 36.3754 59.4063 36.2902C58.6803 36.2049 57.9544 36.3754 57.2284 36.8017C56.5452 37.2279 56.0114 37.7821 55.6271 38.4641C55.2854 39.1035 55.2214 39.9134 55.4349 40.8937C55.6484 41.8315 56.2249 42.7693 57.1644 43.7071C56.2676 44.8153 55.0506 45.5613 53.5132 45.9449C51.9759 46.2859 50.5027 46.1154 49.0935 45.4334C47.727 44.7514 46.8515 43.6005 46.4672 41.9807C46.1683 39.6789 47.5562 37.6968 50.6308 36.0344C54.0043 34.2868 57.7409 33.6687 61.8404 34.1802C66.7512 34.777 70.0607 36.9722 71.7689 40.7659C72.4948 42.3857 72.8578 44.2399 72.8578 46.3285L72.9219 58.0933C72.9219 62.7395 73.9894 64.8281 76.1246 64.3592C77.363 64.1035 78.7508 63.0592 80.2882 61.2263C81.8682 59.3507 83.192 57.4539 84.2596 55.5357C85.3271 53.5749 86.1385 51.7846 86.6936 50.1649C86.9926 49.3976 87.3769 48.268 87.8466 46.7761C88.3591 45.2842 88.8288 43.9841 89.2558 42.8758C89.7256 41.725 90.238 40.638 90.7931 39.615C91.818 37.7394 93.0351 36.3754 94.4443 35.5229C95.2129 35.054 96.0883 34.7556 97.0705 34.6278C98.0527 34.4573 99.0562 34.5212 100.081 34.8196C101.149 35.0753 102.109 35.5655 102.964 36.2902C103.818 36.9722 104.522 38.0378 105.077 39.4871C105.633 40.8938 105.91 42.5775 105.91 44.5383C105.91 44.8366 105.91 45.7318 105.91 47.2237C105.91 48.7156 105.91 49.8878 105.91 50.7403C105.91 51.5502 105.91 52.7224 105.91 54.2569C105.953 55.7488 106.017 57.0276 106.102 58.0933C106.188 59.1163 106.273 60.2245 106.358 61.4181C106.487 62.569 107.001 63.8562 107.432 64.5738C107.863 65.2913 108.724 66.1524 109.298 66.5332H93.6115C93.9959 65.979 94.3375 64.4019 94.6364 61.8017C94.9781 59.1589 95.1916 56.3882 95.277 53.4897C95.3624 50.5485 95.2129 47.9057 94.8286 45.5613C94.4443 43.1742 93.8251 41.9381 92.971 41.8528C92.5867 41.8102 92.181 41.9594 91.754 42.3004C91.3696 42.6414 91.0067 43.1742 90.665 43.8989C90.3661 44.5809 90.0885 45.2203 89.8323 45.817C89.5761 46.4138 89.3199 47.2024 89.0637 48.1828C88.8074 49.1205 88.6366 49.8025 88.5512 50.2288C88.4658 50.6124 88.3377 51.1453 88.1669 51.8273ZM88.1669 40.0626C87.9107 41.4692 87.4196 43.1955 86.6936 45.2416C86.0104 47.2876 85.1563 49.4402 84.1314 51.6994C83.1493 53.9586 81.9749 56.0046 80.6084 57.8375C79.2846 59.6704 77.9822 60.8852 76.7011 61.482C77.2989 57.2621 77.427 52.6585 77.0854 47.6713C76.7438 42.684 76.1673 39.4232 75.3559 37.8886C79.7971 37.4624 84.0674 36.5246 88.1669 35.0753V40.0626Z" fill="#0A6611"/>
<path d="M104.275 33.576C106.476 33.1684 109.01 33.0019 111.881 31.9973C114.751 30.9928 118.311 29.2443 119.534 28.2661V36.3752H124.914V38.4538C124.302 38.4538 123.385 38.4538 122.163 38.4538C120.94 38.4538 120.043 38.4538 119.473 38.4538C119.514 49.5803 119.554 56.2236 119.595 58.3837C119.595 60.5438 119.778 62.174 120.145 63.2745C120.553 64.3749 121.205 64.8436 122.102 64.6805C123.324 64.273 123.793 62.9076 123.508 60.5845C123.222 58.2207 122.407 56.244 121.062 54.6545C123.426 53.4725 125.219 53.7578 126.442 55.5104C127.583 57.1406 127.767 59.0969 126.992 61.3793C126.096 64.11 124.16 65.8625 121.185 66.6369C120.247 66.8814 119.249 67.024 118.189 67.0648C111.872 67.0648 108.713 63.5597 108.713 56.5496C108.713 55.4492 108.713 53.982 108.713 52.148C108.754 50.2732 108.754 48.9486 108.713 48.1742C108.713 47.3998 108.693 46.3605 108.652 45.0563C108.652 43.7521 108.611 42.7944 108.53 42.183C108.489 41.5717 108.407 40.8584 108.285 40.0433C108.163 39.2282 108 38.5557 107.796 38.0259C107.592 37.4553 106.14 34.5805 104.275 33.576Z" fill="#0A6611"/>
<path d="M141.874 66.4534H127.143C128.04 64.4156 128.59 62.0314 128.794 59.3007C128.998 56.5293 128.916 54.0431 128.549 51.8423C128.223 49.6007 127.755 45.5454 127.143 44.3227C129.629 44.3227 131.916 43.8138 133.55 43.3075C135.185 42.8013 136.907 42.183 138.942 40.5051C139.147 43.1927 139.064 49.3561 138.942 54.2877C138.861 59.2192 139.147 63.2745 141.874 66.4534Z" fill="#0A6611"/>
<path d="M138.342 34.9083C140.925 34.9083 142.934 34.7648 145.087 34.3343C147.24 33.9038 150.11 32.8992 151.536 31.8946V36.3752H156.916V38.4538C156.305 38.4538 155.388 38.4538 154.165 38.4538C152.942 38.4538 152.046 38.4538 151.475 38.4538C151.516 49.5803 151.557 56.2236 151.597 58.3837C151.597 60.5438 151.781 62.174 152.148 63.2745C152.555 64.3749 153.207 64.8436 154.104 64.6805C155.327 64.273 155.795 62.9076 155.51 60.5845C155.225 58.2207 154.41 56.244 153.065 54.6545C155.429 53.4725 157.222 53.7578 158.444 55.5104C159.586 57.1406 159.769 59.0969 158.995 61.3793C158.098 64.11 156.162 65.8625 153.187 66.6369C152.25 66.8814 151.251 67.024 150.191 67.0648C143.874 67.0648 140.715 63.5597 140.715 56.5496C140.715 55.4492 140.715 53.982 140.715 52.148C140.756 50.2732 140.756 48.9486 140.715 48.1742C140.715 47.3998 140.695 46.3605 140.654 45.0563C140.654 43.7521 140.614 42.7944 140.532 42.183C140.491 41.5717 140.41 40.8584 140.288 40.0433C140.165 39.2282 140.002 38.5557 139.798 38.0259C139.595 37.4553 138.942 35.7694 138.342 34.9083Z" fill="#0A6611"/>
<path d="M177.302 51.7812C177.343 50.0694 177.363 48.8467 177.363 48.1131C177.282 48.1538 177.058 48.3576 176.691 48.7244C176.365 49.0912 176.141 49.3358 176.018 49.458C175.937 49.5396 175.733 49.7637 175.407 50.1305C175.122 50.4566 174.918 50.7215 174.796 50.9253C174.673 51.0883 174.47 51.3532 174.184 51.72C173.899 52.0461 173.695 52.3314 173.573 52.5759C173.451 52.8204 173.288 53.1465 173.084 53.5541C172.88 53.9209 172.717 54.2673 172.595 54.5933C172.472 54.9194 172.35 55.2862 172.228 55.6938C172.146 56.1013 172.065 56.5089 171.983 56.9165C171.82 57.8946 171.841 58.669 172.045 59.2396C172.248 59.8102 172.574 60.0955 173.023 60.0955C173.919 60.0139 174.694 59.26 175.346 57.8335C176.039 56.3662 176.691 54.3488 177.302 51.7812ZM177.302 56.8553C176.895 58.2818 176.467 59.5249 176.018 60.5845C175.611 61.6034 175.04 62.6631 174.306 63.7635C173.614 64.864 172.717 65.7198 171.617 66.3312C170.557 66.9018 169.314 67.187 167.887 67.187C165.605 67.187 163.791 66.3923 162.446 64.8028C161.142 63.1726 160.551 61.257 160.673 59.0562C160.836 56.8146 161.713 54.8786 163.302 53.2484C164.443 52.0664 165.87 51.0475 167.582 50.1916C169.293 49.295 170.801 48.6429 172.106 48.2353C173.451 47.8278 174.694 47.2164 175.835 46.4013C177.017 45.5454 177.771 44.4654 178.097 43.1612C178.423 41.8162 178.362 40.5731 177.913 39.432C177.506 38.25 176.609 37.5979 175.223 37.4757C174.531 37.4349 173.838 37.6183 173.145 38.0259C172.493 38.4334 171.983 38.9633 171.617 39.6154C171.291 40.2267 171.229 41.0011 171.433 41.9385C171.637 42.8351 172.187 43.7318 173.084 44.6284C172.228 45.6881 171.066 46.4013 169.599 46.7681C168.132 47.0942 166.726 46.9311 165.381 46.279C164.077 45.6269 163.241 44.5265 162.874 42.9778C162.589 40.7769 163.914 38.8817 166.848 37.2923C170.068 35.5805 173.634 34.9895 177.547 35.5193C182.234 36.0899 185.392 38.1889 187.022 41.8162C187.715 43.365 188.062 45.1379 188.062 47.1349L188.123 58.3837C188.123 60.5438 188.327 62.174 188.734 63.2745C189.142 64.3749 189.794 64.8436 190.691 64.6805C191.872 64.273 192.321 62.9076 192.036 60.5845C191.791 58.2207 190.996 56.244 189.651 54.6545C191.974 53.4725 193.768 53.7578 195.031 55.5104C196.132 57.1406 196.295 59.0969 195.52 61.3793C194.624 64.11 192.708 65.8625 189.774 66.6369C188.836 66.9221 187.817 67.0648 186.717 67.0648C180.522 67.0648 177.384 63.6616 177.302 56.8553Z" fill="#0A6611"/>
<path d="M43.6104 27.9791C42.7137 30.7913 42.245 37.3327 42.2043 47.6033C42.1635 57.8332 42.6322 64.3746 43.6104 67.2275H29.7939C30.9759 64.3746 31.5668 58.4445 31.5668 49.4374C31.5668 40.4302 30.9759 34.6836 29.7939 32.1974C31.2204 31.9936 32.8099 31.688 34.5624 31.2804C36.3557 30.8321 38.0675 30.3226 39.6977 29.752C41.328 29.1407 42.6322 28.5497 43.6104 27.9791Z" fill="#0A6611"/>
<path d="M13.9387 67.3004H0C1.05967 63.7546 1.5895 56.9483 1.5895 46.8815C1.63026 36.8147 1.10042 29.8657 0 26.0346H13.9387C13.4496 27.5018 13.0624 29.6619 12.7771 32.5149C14.4074 28.7653 16.3841 26.5848 18.7072 25.9734C20.908 25.4029 22.9662 25.8104 24.8818 27.1961C26.7973 28.5411 28.0812 30.5585 28.7333 33.2485C29.4261 35.9384 29.5484 38.6283 29.1001 41.3182C28.6517 44.0082 27.857 46.3516 26.7158 48.3487C25.1671 51.0794 23.17 53.2191 20.7246 54.7678C18.2792 56.2758 15.5078 56.826 12.4103 56.4185C12.7364 61.5538 13.2458 65.1811 13.9387 67.3004ZM12.3492 55.0735C14.4685 53.1987 16.1599 50.4477 17.4234 46.8203C18.7276 43.1523 19.2574 39.8714 19.0129 36.9777C18.7683 34.084 17.7494 32.6779 15.9561 32.7594C15.1002 32.8001 14.3463 33.3911 13.6941 34.5323C13.042 35.6327 12.5733 37.0999 12.2881 38.934C12.0028 44.3138 12.0231 49.6937 12.3492 55.0735Z" fill="#0A6611"/>
<path d="M164.174 0.753357V4.80181C164.174 24.289 153.293 33.1409 139.874 33.1409H136.023C136.452 27.044 138.351 23.3538 143.308 18.9693C145.747 16.8136 145.54 15.5687 144.339 16.2832C136.069 21.2021 131.961 27.8496 131.778 38.4647L131.772 39.2136H127.722C127.722 36.4546 127.957 33.9506 128.423 31.6592C127.957 29.0399 127.722 25.4853 127.722 20.9956C127.722 9.81581 136.788 0.753357 147.972 0.753357C152.022 0.753357 156.074 2.77758 164.174 0.753357Z" fill="#0A6611"/>
</svg>
