<svg width="29" height="23" viewBox="0 0 29 23" fill="none" xmlns="http://www.w3.org/2000/svg">
<path d="M27.3138 6.6775C24.9417 6.09152 22.4381 6.37721 20.2591 7.48251C19.4774 4.53259 17.6721 1.95683 15.1658 0.215713C14.9556 0.0750743 14.7083 0 14.4554 0C14.2024 0 13.9551 0.0750743 13.7449 0.215713C11.2384 1.95797 9.4327 4.53445 8.65035 7.48507C6.47203 6.37757 3.96791 6.09092 1.59567 6.6775C1.36324 6.73696 1.15224 6.86066 0.986825 7.03443C0.82141 7.20821 0.70826 7.42504 0.660325 7.66012C0.262093 9.72147 0.340727 11.8466 0.890207 13.8729C1.43969 15.8992 2.44545 17.7729 3.83052 19.3506C6.83461 22.7202 10.4597 23 14.2202 23H14.6751C18.4408 23 22.0684 22.7202 25.0764 19.3519C26.4639 17.775 27.4719 15.9012 28.023 13.8743C28.5741 11.8474 28.6536 9.72125 28.2555 7.65885C28.2068 7.4232 28.0926 7.20608 27.926 7.03247C27.7594 6.85886 27.5472 6.73581 27.3138 6.6775ZM14.4554 2.86841C16.2818 4.42764 17.5297 6.55684 17.9974 8.91236C17.4994 9.30743 17.034 9.74201 16.6059 10.2119C15.7339 11.1745 15.0092 12.2609 14.4554 13.4357C13.8992 12.261 13.1729 11.1747 12.2997 10.2119C11.8723 9.7446 11.4083 9.31218 10.912 8.91875C11.379 6.56082 12.6273 4.42922 14.4554 2.86841ZM13.1239 20.4342C10.2208 20.3703 7.79168 19.9537 5.73827 17.6499C4.70853 16.4758 3.9358 15.0994 3.46971 13.6089C3.00362 12.1184 2.85449 10.5469 3.0319 8.99541C4.41018 8.85394 5.80212 9.05267 7.08574 9.57418C8.36935 10.0957 9.50548 10.9241 10.3945 11.9867C11.401 13.1345 12.1623 14.476 12.6316 15.9286C13.1009 17.3812 13.2685 18.9145 13.1239 20.4342ZM23.1686 17.6499C21.1114 19.9499 18.6797 20.3703 15.7715 20.4342C15.6267 18.9145 15.7944 17.3812 16.2643 15.9287C16.7341 14.4762 17.4961 13.1351 18.5034 11.988C19.2959 11.057 20.2757 10.3035 21.379 9.77661C22.4822 9.24975 23.6842 8.96135 24.9064 8.93025C25.2317 8.92998 25.5566 8.95218 25.8788 8.99669C26.0561 10.5483 25.9065 12.1199 25.4397 13.6102C24.973 15.1005 24.1993 16.4766 23.1686 17.6499Z" fill="#07460C"/>
</svg>
