<svg width="28" height="28" viewBox="0 0 28 28" fill="none" xmlns="http://www.w3.org/2000/svg">
<path d="M21.5836 8.71505C20.7202 9.56672 20.4986 10.7917 20.9069 11.8417L17.5002 15.2484V12.8334C17.5002 12.1917 16.9752 11.6667 16.3336 11.6667H15.1319C15.1669 11.4684 15.1669 11.2817 15.1669 11.0834C15.1669 7.53672 12.2969 4.66672 8.75024 4.66672C7.42863 4.66548 6.1389 5.07258 5.0575 5.83233C3.9761 6.59209 3.15582 7.66738 2.70889 8.91113C2.26196 10.1549 2.2102 11.5063 2.56068 12.7806C2.91117 14.0549 3.64678 15.1898 4.6669 16.0301V23.3334C4.6669 23.9751 5.1919 24.5001 5.83357 24.5001H16.3336C16.9752 24.5001 17.5002 23.9751 17.5002 23.3334V18.5384L22.5519 13.4867C23.6019 13.8951 24.8269 13.6851 25.6669 12.8334L21.5836 8.71505ZM4.72524 11.6667C4.7019 11.4684 4.6669 11.2817 4.6669 11.0834C4.6669 8.83172 6.49857 7.00005 8.75024 7.00005C11.0019 7.00005 12.8336 8.83172 12.8336 11.0834C12.8336 11.2817 12.7986 11.4684 12.7752 11.6667M15.1669 22.1667H7.00024V14.0001H15.1669V22.1667Z" fill="#0A6611"/>
</svg>
