<svg width="22" height="33" viewBox="0 0 22 33" fill="none" xmlns="http://www.w3.org/2000/svg">
<path d="M17.5971 22.3043V19.7967C19.4437 18.4117 20.8078 16.4808 21.4961 14.2775C22.1843 12.0741 22.1619 9.7101 21.4319 7.52024C20.702 5.33037 19.3015 3.42569 17.4289 2.07599C15.5563 0.72629 13.3065 0 10.9982 0C8.68984 0 6.44003 0.72629 4.56742 2.07599C2.69482 3.42569 1.29434 5.33037 0.564389 7.52024C-0.165566 9.7101 -0.187999 12.0741 0.500268 14.2775C1.18853 16.4808 2.55261 18.4117 4.39926 19.7967V22.3043C4.06682 22.4962 3.79039 22.7718 3.59744 23.1037C3.4045 23.4355 3.30177 23.8121 3.29945 24.196V26.3956C3.29945 26.979 3.5312 27.5385 3.94371 27.951C4.35622 28.3635 4.9157 28.5952 5.49908 28.5952H5.60906C5.86149 29.8383 6.53591 30.9559 7.51806 31.7587C8.50021 32.5615 9.72968 33 10.9982 33C12.2666 33 13.4961 32.5615 14.4783 31.7587C15.4604 30.9559 16.1348 29.8383 16.3873 28.5952H16.4972C17.0806 28.5952 17.6401 28.3635 18.0526 27.951C18.4651 27.5385 18.6969 26.979 18.6969 26.3956V24.196C18.6946 23.8121 18.5918 23.4355 18.3989 23.1037C18.2059 22.7718 17.9295 22.4962 17.5971 22.3043ZM2.19963 10.9982C2.19872 9.47762 2.59188 7.9828 3.34077 6.65947C4.08966 5.33614 5.16872 4.22947 6.47271 3.44739C7.7767 2.66531 9.26112 2.23452 10.7812 2.19703C12.3013 2.15953 13.8051 2.51661 15.1461 3.23345C16.4871 3.95028 17.6194 5.0024 18.4326 6.2872C19.2458 7.572 19.7122 9.04562 19.7862 10.5644C19.8603 12.0831 19.5395 13.5951 18.8551 14.9529C18.1708 16.3107 17.1462 17.468 15.8813 18.3119C15.7321 18.4128 15.6099 18.5488 15.5255 18.708C15.4411 18.8672 15.3972 19.0446 15.3974 19.2248V21.9963H6.5989V19.2248C6.59917 19.0446 6.55518 18.8672 6.4708 18.708C6.38642 18.5488 6.26423 18.4128 6.11498 18.3119C4.91125 17.5088 3.92418 16.4212 3.24122 15.1455C2.55826 13.8697 2.2005 12.4452 2.19963 10.9982ZM10.9982 30.7949C10.3156 30.7952 9.64965 30.5838 9.0922 30.1899C8.53475 29.7959 8.11322 29.2388 7.88568 28.5952H14.1106C13.8831 29.2388 13.4616 29.7959 12.9041 30.1899C12.3467 30.5838 11.6808 30.7952 10.9982 30.7949ZM5.49908 26.3956V24.196H16.4972V26.3956H5.49908Z" fill="#07460C"/>
<path d="M9.11747 15.0785C9.21971 15.1816 9.34135 15.2634 9.47538 15.3193C9.6094 15.3751 9.75315 15.4038 9.89834 15.4038C10.0435 15.4038 10.1873 15.3751 10.3213 15.3193C10.4553 15.2634 10.577 15.1816 10.6792 15.0785L15.0785 10.6793C15.181 10.5767 15.2624 10.455 15.3179 10.321C15.3734 10.187 15.4019 10.0434 15.4019 9.89838C15.4019 9.75336 15.3734 9.60976 15.3179 9.47578C15.2624 9.3418 15.181 9.22006 15.0785 9.11751C14.9759 9.01497 14.8542 8.93362 14.7202 8.87813C14.5862 8.82263 14.4426 8.79407 14.2976 8.79407C14.1526 8.79407 14.009 8.82263 13.875 8.87813C13.741 8.93362 13.6193 9.01497 13.5167 9.11751L9.89834 12.7469L8.47958 11.3171C8.27248 11.11 7.99159 10.9937 7.69871 10.9937C7.40582 10.9937 7.12494 11.11 6.91784 11.3171C6.71074 11.5242 6.59439 11.8051 6.59439 12.098C6.59439 12.3909 6.71074 12.6718 6.91784 12.8789L9.11747 15.0785Z" fill="#07460C"/>
</svg>
