<svg width="53" height="50" viewBox="0 0 53 50" fill="none" xmlns="http://www.w3.org/2000/svg">
<rect x="0.392853" width="52.5794" height="50" rx="5" fill="#F4F9F5"/>
<path fill-rule="evenodd" clip-rule="evenodd" d="M16.1667 13.75C16.1667 13.4185 16.3052 13.1005 16.5517 12.8661C16.7982 12.6317 17.1325 12.5 17.4812 12.5H35.8839C36.2326 12.5 36.5669 12.6317 36.8134 12.8661C37.0599 13.1005 37.1984 13.4185 37.1984 13.75V36.25C37.1984 36.489 37.1264 36.7229 36.9909 36.9241C36.8554 37.1254 36.6621 37.2855 36.4339 37.3854C36.2056 37.4854 35.952 37.5211 35.7031 37.4882C35.4543 37.4553 35.2205 37.3553 35.0295 37.2L33.6717 36.0938C33.4335 35.8998 33.1302 35.7931 32.8166 35.7931C32.503 35.7931 32.1997 35.8998 31.9615 36.0938L30.605 37.1988C30.3667 37.3931 30.0631 37.4999 29.7492 37.4999C29.4353 37.4999 29.1318 37.3931 28.8935 37.1988L27.5383 36.0938C27.3 35.8994 26.9965 35.7926 26.6825 35.7926C26.3686 35.7926 26.0651 35.8994 25.8268 36.0938L24.4716 37.1988C24.2333 37.3931 23.9298 37.4999 23.6159 37.4999C23.3019 37.4999 22.9984 37.3931 22.7601 37.1988L21.4036 36.0938C21.1654 35.8998 20.8621 35.7931 20.5485 35.7931C20.2349 35.7931 19.9316 35.8998 19.6934 36.0938L18.3369 37.1988C18.146 37.3544 17.9123 37.4547 17.6633 37.4878C17.4143 37.521 17.1605 37.4855 16.9321 37.3856C16.7037 37.2858 16.5101 37.1257 16.3745 36.9244C16.2388 36.7231 16.1667 36.4891 16.1667 36.25V13.75ZM22.7391 17.5C22.3905 17.5 22.0561 17.6317 21.8096 17.8661C21.5631 18.1005 21.4246 18.4185 21.4246 18.75C21.4246 19.0815 21.5631 19.3995 21.8096 19.6339C22.0561 19.8683 22.3905 20 22.7391 20H30.626C30.9746 20 31.309 19.8683 31.5555 19.6339C31.802 19.3995 31.9405 19.0815 31.9405 18.75C31.9405 18.4185 31.802 18.1005 31.5555 17.8661C31.309 17.6317 30.9746 17.5 30.626 17.5H22.7391ZM22.7391 22.5C22.3905 22.5 22.0561 22.6317 21.8096 22.8661C21.5631 23.1005 21.4246 23.4185 21.4246 23.75C21.4246 24.0815 21.5631 24.3995 21.8096 24.6339C22.0561 24.8683 22.3905 25 22.7391 25H30.626C30.9746 25 31.309 24.8683 31.5555 24.6339C31.802 24.3995 31.9405 24.0815 31.9405 23.75C31.9405 23.4185 31.802 23.1005 31.5555 22.8661C31.309 22.6317 30.9746 22.5 30.626 22.5H22.7391ZM24.0536 28.75C24.0536 28.4185 24.1921 28.1005 24.4386 27.8661C24.6851 27.6317 25.0194 27.5 25.3681 27.5H30.626C30.9746 27.5 31.309 27.6317 31.5555 27.8661C31.802 28.1005 31.9405 28.4185 31.9405 28.75C31.9405 29.0815 31.802 29.3995 31.5555 29.6339C31.309 29.8683 30.9746 30 30.626 30H25.3681C25.0194 30 24.6851 29.8683 24.4386 29.6339C24.1921 29.3995 24.0536 29.0815 24.0536 28.75Z" fill="#0A6611"/>
</svg>
