<svg width="51" height="63" viewBox="0 0 51 63" fill="none" xmlns="http://www.w3.org/2000/svg">
<path d="M25.5 28.375C28.0888 28.375 30.1875 26.2763 30.1875 23.6875C30.1875 21.0987 28.0888 19 25.5 19C22.9112 19 20.8125 21.0987 20.8125 23.6875C20.8125 26.2763 22.9112 28.375 25.5 28.375Z" fill="#F4F4F4"/>
<path d="M25.5 0.25C18.9127 0.249671 12.5914 2.84925 7.91013 7.48372C3.22885 12.1182 0.565873 18.413 0.5 25C0.5 42.125 22.5313 61.1875 23.4688 62C24.0348 62.4842 24.7551 62.7502 25.5 62.7502C26.2449 62.7502 26.9652 62.4842 27.5312 62C28.625 61.1875 50.5 42.125 50.5 25C50.4341 18.413 47.7712 12.1182 43.0899 7.48372C38.4086 2.84925 32.0873 0.249671 25.5 0.25ZM25.5 34.625C23.3368 34.625 21.2221 33.9835 19.4235 32.7817C17.6248 31.5799 16.2229 29.8717 15.3951 27.8731C14.5672 25.8745 14.3506 23.6754 14.7727 21.5537C15.1947 19.432 16.2364 17.4832 17.766 15.9535C19.2957 14.4239 21.2445 13.3822 23.3662 12.9602C25.4879 12.5381 27.687 12.7547 29.6856 13.5826C31.6842 14.4104 33.3924 15.8123 34.5942 17.611C35.796 19.4096 36.4375 21.5243 36.4375 23.6875C36.4375 26.5883 35.2852 29.3703 33.234 31.4215C31.1828 33.4727 28.4008 34.625 25.5 34.625Z" fill="#F4F4F4"/>
</svg>
