<svg width="50" height="50" viewBox="0 0 50 50" fill="none" xmlns="http://www.w3.org/2000/svg">
<rect width="50" height="50" rx="5" fill="#FBDDE3"/>
<path d="M27.3169 13.9331C27.434 14.0503 27.4999 14.2093 27.4999 14.375C27.4999 14.5407 27.434 14.6997 27.3169 14.8169L25.8837 16.25L27.3169 17.6831C27.4307 17.801 27.4937 17.9589 27.4923 18.1228C27.4909 18.2866 27.4251 18.4434 27.3093 18.5593C27.1934 18.6751 27.0366 18.7409 26.8728 18.7423C26.7089 18.7437 26.551 18.6807 26.4331 18.5669L25 17.1338L23.5669 18.5669C23.5088 18.6249 23.4399 18.6709 23.364 18.7023C23.2882 18.7337 23.2069 18.7498 23.1248 18.7498C23.0427 18.7498 22.9614 18.7336 22.8856 18.7021C22.8097 18.6707 22.7408 18.6246 22.6828 18.5666C22.6248 18.5085 22.5788 18.4396 22.5474 18.3637C22.516 18.2879 22.4998 18.2066 22.4999 18.1245C22.4999 18.0424 22.5161 17.9611 22.5475 17.8853C22.579 17.8094 22.6251 17.7405 22.6831 17.6825L24.1163 16.25L22.6831 14.8169C22.6251 14.7588 22.5791 14.6899 22.5477 14.614C22.5163 14.5382 22.5002 14.4569 22.5002 14.3748C22.5002 14.2927 22.5164 14.2114 22.5479 14.1356C22.5793 14.0597 22.6254 13.9908 22.6834 13.9328C22.7415 13.8748 22.8104 13.8288 22.8863 13.7974C22.9621 13.766 23.0434 13.7498 23.1255 13.7499C23.2076 13.7499 23.2889 13.7661 23.3647 13.7975C23.4406 13.829 23.5095 13.8751 23.5675 13.9331L25 15.3663L26.4331 13.9331C26.5503 13.816 26.7093 13.7501 26.875 13.7501C27.0407 13.7501 27.1997 13.816 27.3169 13.9331ZM21.9987 30.455C22.4172 30.5944 22.8681 30.6041 23.2921 30.4828C23.7162 30.3614 24.0937 30.1147 24.375 29.775V36.2644L16.875 33.4375V28.7475L21.9987 30.455Z" fill="#E31B42"/>
<path fill-rule="evenodd" clip-rule="evenodd" d="M33.125 33.4375L25.625 36.2644V29.775C25.9063 30.1147 26.2838 30.3614 26.7079 30.4828C27.1319 30.6041 27.5828 30.5945 28.0012 30.455L33.125 28.7475V33.4375ZM25.2043 19.4094C25.0719 19.3636 24.928 19.3636 24.7956 19.4094L16.6718 22.2219L16.6575 22.2263C16.5482 22.2668 16.4525 22.3372 16.3812 22.4294L13.8875 25.5469C13.8245 25.6255 13.7814 25.7181 13.762 25.817C13.7425 25.9158 13.7472 26.0179 13.7757 26.1145C13.8042 26.2111 13.8556 26.2994 13.9255 26.3718C13.9955 26.4443 14.0819 26.4988 14.1775 26.5306L22.615 29.3431C22.7427 29.3856 22.8808 29.3857 23.0086 29.3433C23.1365 29.301 23.2472 29.2185 23.3243 29.1081L25 26.7144L26.675 29.1081C26.7522 29.2186 26.863 29.3012 26.9909 29.3436C27.1189 29.3859 27.2571 29.3858 27.385 29.3431L35.8225 26.5306C35.9181 26.4988 36.0046 26.4444 36.0746 26.372C36.1446 26.2996 36.1961 26.2113 36.2246 26.1146C36.2532 26.018 36.2579 25.9159 36.2385 25.8171C36.2191 25.7182 36.1761 25.6255 36.1131 25.5469L33.6193 22.4294C33.5448 22.333 33.4435 22.2606 33.3281 22.2213L25.2043 19.4094ZM25 24.9638L31.2143 22.8125L25 20.6613L18.7856 22.8125L25 24.9638Z" fill="#E31B42"/>
</svg>
