<svg width="35" height="35" viewBox="0 0 35 35" fill="none" xmlns="http://www.w3.org/2000/svg">
<g clip-path="url(#clip0_888_365)">
<path d="M15.26 4.78626C15.521 4.47316 15.8447 4.21824 16.2103 4.03794C16.5758 3.85764 16.9751 3.75597 17.3824 3.73948C17.7897 3.72299 18.1959 3.79205 18.5749 3.94221C18.9538 4.09236 19.2971 4.32028 19.5825 4.61126L19.74 4.78626L25.4742 11.6667H29.8273C30.1333 11.666 30.4361 11.73 30.7157 11.8545C30.9952 11.979 31.2454 12.1611 31.4497 12.389C31.654 12.6168 31.8079 12.8853 31.9013 13.1767C31.9946 13.4682 32.0254 13.7761 31.9915 14.0802L31.8573 15.1973L31.7115 16.2765L31.5919 17.0844L31.4533 17.9521L31.2958 18.8636L31.1179 19.8086L30.9196 20.7725C30.8146 21.2581 30.7023 21.7452 30.5813 22.2279C30.2584 23.5089 29.8532 24.7676 29.3679 25.9963L29.0456 26.7838L28.7336 27.4954L28.439 28.1283L28.3019 28.4113L27.9388 29.1258C27.4721 30.0154 26.5913 30.5404 25.6594 30.6163L25.4261 30.625H9.55939C9.04952 30.629 8.54817 30.4943 8.10892 30.2354C7.66968 29.9765 7.30906 29.603 7.06564 29.155L6.7273 28.4988L6.4648 27.9592C6.41806 27.8598 6.37188 27.7601 6.32626 27.6602L6.0346 27.0054C5.36878 25.4588 4.82843 23.8612 4.41876 22.2279C4.33963 21.9108 4.26379 21.5929 4.19126 21.2742L3.98418 20.3292L3.79897 19.4046L3.63564 18.5106L3.4898 17.6546L3.36293 16.8467L3.25501 16.0986L3.12376 15.1025L3.02751 14.2917C3.0191 14.2173 3.01084 14.1429 3.00272 14.0686C2.97215 13.782 2.99897 13.4922 3.08162 13.2161C3.16427 12.94 3.30109 12.6831 3.48409 12.4605C3.6671 12.2378 3.89262 12.0539 4.14749 11.9193C4.40236 11.7848 4.68148 11.7024 4.96855 11.6769L5.16689 11.6667H9.52585L15.26 4.78626ZM28.9961 14.5833H5.99814L6.08855 15.2892L6.19939 16.0883L6.33355 16.9692L6.49105 17.9142C6.54939 18.2379 6.60918 18.5704 6.6748 18.9088L6.88334 19.9398C6.99418 20.4619 7.11668 20.9927 7.24793 21.5206C7.61821 22.9947 8.10588 24.4367 8.70626 25.8329L8.99209 26.4761L9.25751 27.0361L9.49522 27.5071L9.60022 27.7083H25.3896L25.6142 27.2665L25.8723 26.7342L26.1552 26.1173C26.6904 24.9142 27.3029 23.3202 27.7521 21.5206C27.9344 20.7915 28.0963 20.0506 28.2406 19.3229L28.4448 18.2467L28.6198 17.2127L28.6971 16.7183L28.8356 15.7894L28.9479 14.9581L28.9961 14.5833ZM14.5629 18.7192L15.2921 23.0942C15.343 23.4699 15.2456 23.8507 15.0205 24.1558C14.7954 24.4609 14.4603 24.6664 14.0862 24.7286C13.7122 24.7908 13.3287 24.7049 13.0169 24.4891C12.7052 24.2732 12.4897 23.9445 12.4163 23.5725L11.6871 19.1975C11.6493 19.006 11.6503 18.8088 11.6901 18.6177C11.7299 18.4266 11.8076 18.2454 11.9187 18.0849C12.0299 17.9244 12.1721 17.7879 12.3369 17.6833C12.5018 17.5788 12.686 17.5085 12.8785 17.4764C13.0711 17.4444 13.2681 17.4514 13.458 17.4969C13.6478 17.5424 13.8265 17.6256 13.9836 17.7415C14.1407 17.8574 14.2729 18.0036 14.3724 18.1716C14.4719 18.3395 14.5367 18.5257 14.5629 18.7192ZM21.945 17.5L22.1142 17.519C22.4672 17.5772 22.7864 17.7632 23.0112 18.0415C23.236 18.3198 23.3506 18.671 23.3333 19.0283L23.3144 19.1975L22.5852 23.5725C22.5234 23.9387 22.3241 24.2675 22.0281 24.4919C21.7321 24.7162 21.3617 24.8192 20.9924 24.7797C20.6231 24.7403 20.2827 24.5614 20.0408 24.2796C19.7989 23.9978 19.6735 23.6344 19.6904 23.2633L19.7094 23.0942L20.4386 18.7192C20.4968 18.3667 20.6823 18.0479 20.96 17.8232C21.2377 17.5984 21.5882 17.4834 21.945 17.5ZM17.5 6.65293L13.3219 11.6667H21.6781L17.5 6.65293Z" fill="black"/>
</g>
<defs>
<clipPath id="clip0_888_365">
<rect width="35" height="35" fill="white"/>
</clipPath>
</defs>
</svg>
