<svg width="35" height="35" viewBox="0 0 35 35" fill="none" xmlns="http://www.w3.org/2000/svg">
<path d="M32.0441 28.711C30.1696 25.4211 27.2426 22.8577 23.7343 21.4334C25.479 20.1249 26.7677 18.3007 27.418 16.2191C28.0682 14.1374 28.047 11.904 27.3574 9.83511C26.6677 7.76621 25.3446 5.96674 23.5755 4.6916C21.8063 3.41646 19.6808 2.73029 17.5 2.73029C15.3192 2.73029 13.1936 3.41646 11.4245 4.6916C9.65529 5.96674 8.33218 7.76621 7.64255 9.83511C6.95292 11.904 6.93172 14.1374 7.58197 16.2191C8.23222 18.3007 9.52094 20.1249 11.2656 21.4334C7.75728 22.8577 4.83029 25.4211 2.95582 28.711C2.83967 28.8977 2.76226 29.1059 2.72818 29.3232C2.69411 29.5405 2.70407 29.7624 2.75747 29.9757C2.81087 30.1891 2.90663 30.3895 3.03904 30.5651C3.17145 30.7407 3.33782 30.8879 3.52825 30.998C3.71869 31.108 3.9293 31.1786 4.14757 31.2056C4.36584 31.2326 4.58731 31.2154 4.79882 31.1551C5.01032 31.0948 5.20754 30.9926 5.37876 30.8546C5.54997 30.7165 5.69168 30.5455 5.79547 30.3516C8.27281 26.0695 12.6478 23.5156 17.5 23.5156C22.3521 23.5156 26.7271 26.0709 29.2045 30.3516C29.4294 30.7132 29.7861 30.9733 30.1993 31.0767C30.6124 31.1801 31.0496 31.1188 31.4184 30.9057C31.7872 30.6927 32.0586 30.3445 32.1754 29.935C32.2922 29.5254 32.2451 29.0864 32.0441 28.711ZM10.3906 13.125C10.3906 11.7189 10.8075 10.3444 11.5887 9.17526C12.3699 8.00613 13.4803 7.0949 14.7793 6.55681C16.0784 6.01871 17.5078 5.87793 18.8869 6.15224C20.266 6.42656 21.5328 7.10366 22.527 8.09793C23.5213 9.09219 24.1984 10.359 24.4727 11.738C24.747 13.1171 24.6063 14.5466 24.0682 15.8457C23.5301 17.1447 22.6188 18.2551 21.4497 19.0362C20.2806 19.8174 18.9061 20.2344 17.5 20.2344C15.6151 20.2322 13.8081 19.4825 12.4753 18.1497C11.1425 16.8169 10.3928 15.0099 10.3906 13.125Z" fill="black"/>
</svg>
