<svg width="42" height="42" viewBox="0 0 42 42" fill="none" xmlns="http://www.w3.org/2000/svg">
<path d="M29.9896 36.1875L37.2292 29L35.0417 26.8125L29.9896 31.7604L27.9583 29.7292L25.7708 31.9688L29.9896 36.1875ZM6.5 12.75H31.5V8.58334H6.5V12.75ZM31.5 41.9167C28.6181 41.9167 26.1611 40.9007 24.1292 38.8688C22.0972 36.8368 21.0819 34.3806 21.0833 31.5C21.0833 28.6181 22.0993 26.1611 24.1313 24.1292C26.1632 22.0972 28.6194 21.0819 31.5 21.0833C34.3819 21.0833 36.8389 22.0993 38.8708 24.1313C40.9028 26.1632 41.9181 28.6194 41.9167 31.5C41.9167 34.382 40.9007 36.8389 38.8688 38.8708C36.8368 40.9028 34.3806 41.9181 31.5 41.9167ZM0.25 39.8333V4.41667C0.25 3.27084 0.658334 2.28959 1.475 1.47292C2.29167 0.656253 3.27222 0.248615 4.41667 0.250004H33.5833C34.7292 0.250004 35.7104 0.658337 36.5271 1.475C37.3438 2.29167 37.7514 3.27223 37.75 4.41667V18.3229C36.7778 17.8368 35.7618 17.4806 34.7021 17.2542C33.6424 17.0278 32.575 16.9153 31.5 16.9167H6.5V21.0833H21.2917C20.7014 21.6736 20.1549 22.316 19.6521 23.0104C19.1493 23.7049 18.7063 24.4514 18.3229 25.25H6.5V29.4167H17.0729C17.0035 29.7639 16.9597 30.1028 16.9417 30.4333C16.9236 30.7639 16.9153 31.1195 16.9167 31.5C16.9167 32.9583 17.1167 34.3563 17.5167 35.6938C17.9167 37.0313 18.5153 38.307 19.3125 39.5208L19 39.8333L15.875 36.7083L12.75 39.8333L9.625 36.7083L6.5 39.8333L3.375 36.7083L0.25 39.8333Z" fill="#222222"/>
</svg>
