<svg width="50" height="50" viewBox="0 0 50 50" fill="none" xmlns="http://www.w3.org/2000/svg">
<rect width="50" height="50" rx="5" fill="#FFF7DE"/>
<path d="M23.7863 13.175C24.1576 12.9688 24.5753 12.8606 25 12.8606C25.4247 12.8606 25.8424 12.9688 26.2137 13.175L35.6075 18.3925C35.8023 18.5008 35.9645 18.6592 36.0775 18.8513C36.1904 19.0434 36.25 19.2622 36.25 19.485V29.7788C36.2499 30.2246 36.1306 30.6622 35.9044 31.0464C35.6783 31.4306 35.3535 31.7473 34.9638 31.9638L26.2137 36.8263C25.8424 37.0325 25.4247 37.1407 25 37.1407C24.5753 37.1407 24.1576 37.0325 23.7863 36.8263L15.0362 31.9638C14.6467 31.7474 14.322 31.4309 14.0959 31.047C13.8697 30.663 13.7503 30.2256 13.75 29.78V19.485C13.75 19.2622 13.8096 19.0434 13.9225 18.8513C14.0355 18.6592 14.1977 18.5008 14.3925 18.3925L23.7863 13.175Z" stroke="#FECA26" stroke-width="2.5" stroke-linecap="round" stroke-linejoin="round"/>
<path d="M13.75 18.75L25 25M25 25L36.25 18.75M25 25V37.5" stroke="#FECA26" stroke-width="2.5" stroke-linejoin="round"/>
<path d="M19.375 21.875L30.625 15.625M17.5 25.41L21.25 27.5" stroke="#FECA26" stroke-width="2.5" stroke-linecap="round" stroke-linejoin="round"/>
</svg>
