<svg width="50" height="50" viewBox="0 0 50 50" fill="none" xmlns="http://www.w3.org/2000/svg">
<rect width="50" height="50" rx="5" fill="#FDE7E2"/>
<rect width="30" height="30" transform="translate(10 10)" fill="#FDE7E2"/>
<path d="M31.5625 30.625C31.5625 30.4583 31.5 30.3125 31.375 30.1875C31.25 30.0625 31.1042 30 30.9375 30C30.7708 30 30.625 30.0625 30.5 30.1875C30.375 30.3125 30.3125 30.4583 30.3125 30.625V34.375C30.3125 34.5417 30.375 34.6875 30.5 34.8125C30.625 34.9375 30.7708 35 30.9375 35C31.1042 35 31.25 34.9375 31.375 34.8125C31.5 34.6875 31.5625 34.5417 31.5625 34.375V30.625ZM33.4375 30.625V34.375C33.4375 34.5417 33.5 34.6875 33.625 34.8125C33.75 34.9375 33.8958 35 34.0625 35C34.2292 35 34.375 34.9375 34.5 34.8125C34.625 34.6875 34.6875 34.5417 34.6875 34.375V30.625C34.6875 30.4583 34.625 30.3125 34.5 30.1875C34.375 30.0625 34.2292 30 34.0625 30C33.8958 30 33.75 30.0625 33.625 30.1875C33.5 30.3125 33.4375 30.4583 33.4375 30.625ZM31.25 21.25C31.6042 21.25 31.9012 21.13 32.1412 20.89C32.3812 20.65 32.5008 20.3533 32.5 20C32.5 19.6458 32.38 19.3488 32.14 19.1088C31.9 18.8688 31.6033 18.7492 31.25 18.75H18.75C18.3958 18.75 18.0988 18.87 17.8588 19.11C17.6188 19.35 17.4992 19.6467 17.5 20C17.5 20.3542 17.62 20.6513 17.86 20.8913C18.1 21.1313 18.3967 21.2508 18.75 21.25H31.25ZM32.5 38.75C30.7708 38.75 29.2967 38.1404 28.0775 36.9213C26.8583 35.7021 26.2492 34.2283 26.25 32.5C26.25 30.7708 26.8596 29.2967 28.0788 28.0775C29.2979 26.8583 30.7717 26.2492 32.5 26.25C34.2292 26.25 35.7033 26.8596 36.9225 28.0788C38.1417 29.2979 38.7508 30.7717 38.75 32.5C38.75 34.2292 38.1404 35.7033 36.9213 36.9225C35.7021 38.1417 34.2283 38.7508 32.5 38.75ZM16.25 13.75H33.75C34.4375 13.75 35.0263 13.995 35.5163 14.485C36.0063 14.975 36.2508 15.5633 36.25 16.25V24.5938C35.6667 24.3021 35.0571 24.0883 34.4213 23.9525C33.7854 23.8167 33.145 23.7492 32.5 23.75H18.75C18.3958 23.75 18.0988 23.87 17.8588 24.11C17.6188 24.35 17.4992 24.6467 17.5 25C17.5 25.3542 17.62 25.6513 17.86 25.8913C18.1 26.1313 18.3967 26.2508 18.75 26.25H26.375C26.0208 26.6042 25.6929 26.9896 25.3912 27.4063C25.0896 27.8229 24.8238 28.2708 24.5938 28.75H18.75C18.3958 28.75 18.0988 28.87 17.8588 29.11C17.6188 29.35 17.4992 29.6467 17.5 30C17.5 30.3542 17.62 30.6513 17.86 30.8913C18.1 31.1313 18.3967 31.2508 18.75 31.25H23.8438C23.8021 31.4583 23.7758 31.6617 23.765 31.86C23.7542 32.0583 23.7492 32.2717 23.75 32.5C23.75 33.375 23.87 34.2138 24.11 35.0163C24.35 35.8188 24.7092 36.5842 25.1875 37.3125C25.0833 37.3333 24.9738 37.3175 24.8588 37.265C24.7438 37.2125 24.645 37.145 24.5625 37.0625L23.5625 36.0625C23.4375 35.9375 23.2917 35.875 23.125 35.875C22.9583 35.875 22.8125 35.9375 22.6875 36.0625L21.6875 37.0625C21.5625 37.1875 21.4167 37.25 21.25 37.25C21.0833 37.25 20.9375 37.1875 20.8125 37.0625L19.8125 36.0625C19.6875 35.9375 19.5417 35.875 19.375 35.875C19.2083 35.875 19.0625 35.9375 18.9375 36.0625L17.9375 37.0625C17.8125 37.1875 17.6667 37.25 17.5 37.25C17.3333 37.25 17.1875 37.1875 17.0625 37.0625L16.0625 36.0625C15.9375 35.9375 15.7917 35.875 15.625 35.875C15.4583 35.875 15.3125 35.9375 15.1875 36.0625L14.1875 37.0625L13.75 37.3438V16.25C13.75 15.5625 13.995 14.9738 14.485 14.4838C14.975 13.9938 15.5633 13.7492 16.25 13.75Z" fill="#F2441D"/>
</svg>
