<svg width="196" height="67" viewBox="0 0 196 67" fill="none" xmlns="http://www.w3.org/2000/svg">
<path d="M61.5839 50.4345C61.6266 48.6442 61.648 47.3655 61.648 46.5982C61.5626 46.6408 61.3277 46.854 60.9434 47.2376C60.6017 47.6212 60.3669 47.877 60.2388 48.0049C60.1534 48.0901 59.9398 48.3245 59.5982 48.7082C59.2993 49.0492 59.0858 49.3263 58.9577 49.5394C58.8296 49.7099 58.616 49.9869 58.3171 50.3706C58.0182 50.7116 57.8047 51.01 57.6766 51.2657C57.5485 51.5215 57.3776 51.8625 57.1641 52.2887C56.9506 52.6724 56.7798 53.0347 56.6517 53.3757C56.5236 53.7167 56.3955 54.1003 56.2674 54.5266C56.1819 54.9529 56.0965 55.3791 56.0111 55.8054C55.8403 56.8284 55.8617 57.6383 56.0752 58.235C56.2887 58.8318 56.6303 59.1302 57.1001 59.1302C57.7406 59.0876 58.3598 58.64 58.9577 57.7875C59.5555 56.8923 60.0252 55.8906 60.3669 54.7824C60.7512 53.6315 61.1569 52.1822 61.5839 50.4345ZM88.1666 51.0739C88.2094 58.1924 88.7645 63.0944 89.8321 65.7798C87.0991 64.7142 82.5725 64.6289 76.2525 65.5241C74.9287 65.6946 73.797 65.8224 72.8576 65.9077C71.9181 65.9929 70.8932 66.0356 69.7829 66.0356C68.7153 65.9929 67.8186 65.8651 67.0926 65.6519C66.3667 65.4388 65.6194 65.0978 64.8507 64.6289C64.1248 64.1174 63.5269 63.478 63.0572 62.7108C62.6301 61.9435 62.2672 60.9844 61.9682 59.8335C61.712 58.64 61.5839 57.276 61.5839 55.7414C61.1569 57.2333 60.7085 58.5334 60.2388 59.6417C59.8117 60.7073 59.2139 61.8156 58.4452 62.9665C57.7193 64.1174 56.7798 65.0125 55.6268 65.6519C54.5165 66.2487 53.2141 66.5471 51.7195 66.5471C49.3281 66.5471 47.4278 65.7159 46.0186 64.0535C44.6521 62.3484 44.0329 60.345 44.161 58.0432C44.3318 55.6988 45.2499 53.6741 46.9154 51.969C48.111 50.7329 49.6057 49.6673 51.3992 48.7721C53.1927 47.8344 54.7727 47.1523 56.1392 46.7261C57.5485 46.2998 58.8509 45.6604 60.0466 44.8079C61.285 43.9128 62.075 42.7832 62.4166 41.4192C62.7583 40.0125 62.6942 38.7124 62.2245 37.5189C61.7974 36.2828 60.858 35.6221 59.406 35.5368C58.6801 35.4516 57.9541 35.6221 57.2282 36.0483C56.5449 36.4746 56.0111 37.0287 55.6268 37.7107C55.2852 38.3501 55.2211 39.16 55.4346 40.1404C55.6482 41.0782 56.2247 42.0159 57.1641 42.9537C56.2674 44.062 55.0503 44.8079 53.513 45.1916C51.9757 45.5326 50.5024 45.3621 49.0932 44.68C47.7267 43.998 46.8513 42.8471 46.467 41.2274C46.1681 38.9256 47.5559 36.9435 50.6305 35.2811C54.0041 33.5334 57.7406 32.9153 61.8401 33.4268C66.751 34.0236 70.0605 36.2188 71.7686 40.0125C72.4946 41.6323 72.8576 43.4865 72.8576 45.5752L72.9216 57.3399C72.9216 61.9861 73.9892 64.0748 76.1244 63.6059C77.3627 63.3501 78.7506 62.3058 80.2879 60.4729C81.8679 58.5974 83.1917 56.7005 84.2593 54.7824C85.3269 52.8216 86.1382 51.0313 86.6934 49.4115C86.9923 48.6442 87.3766 47.5147 87.8464 46.0228C88.3588 44.5309 88.8285 43.2308 89.2556 42.1225C89.7253 40.9716 90.2378 39.8846 90.7929 38.8616C91.8178 36.9861 93.0348 35.6221 94.444 34.7695C95.2127 34.3007 96.0881 34.0023 97.0703 33.8744C98.0524 33.7039 99.056 33.7678 100.081 34.0662C101.148 34.322 102.109 34.8122 102.963 35.5368C103.817 36.2188 104.522 37.2845 105.077 38.7337C105.632 40.1404 105.91 41.8241 105.91 43.7849C105.91 44.0833 105.91 44.9784 105.91 46.4703C105.91 47.9622 105.91 49.1344 105.91 49.987C105.91 50.7968 105.91 51.969 105.91 53.5036C105.953 54.9955 106.017 56.2743 106.102 57.3399C106.187 58.3629 106.273 59.4712 106.358 60.6647C106.486 61.8156 107.001 63.1029 107.432 63.8204C107.862 64.538 108.723 65.399 109.297 65.7798H93.6113C93.9956 65.2257 94.3373 63.6485 94.6362 61.0483C94.9778 58.4055 95.1913 55.6349 95.2767 52.7363C95.3621 49.7951 95.2127 47.1523 94.8283 44.8079C94.444 42.4209 93.8248 41.1847 92.9708 41.0995C92.5864 41.0568 92.1807 41.206 91.7537 41.547C91.3694 41.8881 91.0064 42.4209 90.6648 43.1455C90.3659 43.8275 90.0883 44.4669 89.8321 45.0637C89.5759 45.6604 89.3196 46.449 89.0634 47.4294C88.8072 48.3672 88.6364 49.0492 88.551 49.4754C88.4656 49.8591 88.3375 50.3919 88.1666 51.0739ZM88.1666 39.3092C87.9104 40.7158 87.4193 42.4422 86.6934 44.4882C86.0101 46.5343 85.1561 48.6869 84.1312 50.946C83.149 53.2052 81.9747 55.2512 80.6082 57.0841C79.2844 58.9171 77.9819 60.1319 76.7008 60.7286C77.2987 56.5087 77.4268 51.9051 77.0852 46.9179C76.7435 41.9307 76.1671 38.6698 75.3557 37.1353C79.7968 36.709 84.0671 35.7713 88.1666 34.322V39.3092Z" fill="white"/>
<path d="M104.274 32.8226C106.475 32.415 109.01 32.2485 111.88 31.244C114.751 30.2394 118.311 28.4909 119.534 27.5128V35.6219H124.914V37.7005C124.302 37.7005 123.385 37.7005 122.162 37.7005C120.94 37.7005 120.043 37.7005 119.473 37.7005C119.513 48.8269 119.554 55.4702 119.595 57.6303C119.595 59.7904 119.778 61.4207 120.145 62.5211C120.553 63.6215 121.205 64.0902 122.101 63.9272C123.324 63.5196 123.793 62.1543 123.507 59.8312C123.222 57.4673 122.407 55.4906 121.062 53.9011C123.426 52.7192 125.219 53.0045 126.442 54.757C127.583 56.3873 127.766 58.3436 126.992 60.6259C126.095 63.3566 124.16 65.1091 121.184 65.8835C120.247 66.128 119.248 66.2707 118.189 66.3114C111.871 66.3114 108.713 62.8064 108.713 55.7963C108.713 54.6959 108.713 53.2286 108.713 51.3946C108.754 49.5198 108.754 48.1952 108.713 47.4209C108.713 46.6465 108.692 45.6072 108.652 44.303C108.652 42.9988 108.611 42.041 108.529 41.4297C108.489 40.8183 108.407 40.1051 108.285 39.29C108.163 38.4748 108 37.8023 107.796 37.2725C107.592 36.7019 106.14 33.8272 104.274 32.8226Z" fill="white"/>
<path d="M141.874 65.7001H127.143C128.04 63.6623 128.59 61.278 128.794 58.5473C128.997 55.7759 128.916 53.2898 128.549 51.0889C128.223 48.8473 127.754 44.7921 127.143 43.5694C129.629 43.5694 131.916 43.0604 133.55 42.5542C135.185 42.0479 136.907 41.4297 138.942 39.7518C139.147 42.4394 139.064 48.6028 138.942 53.5343C138.86 58.4658 139.147 62.5211 141.874 65.7001Z" fill="white"/>
<path d="M138.342 34.155C140.925 34.155 142.934 34.0115 145.087 33.5809C147.239 33.1504 150.11 32.1458 151.536 31.1413V35.6219H156.916V37.7005C156.305 37.7005 155.388 37.7005 154.165 37.7005C152.942 37.7005 152.045 37.7005 151.475 37.7005C151.516 48.8269 151.556 55.4702 151.597 57.6303C151.597 59.7904 151.781 61.4207 152.147 62.5211C152.555 63.6215 153.207 64.0902 154.104 63.9272C155.326 63.5196 155.795 62.1543 155.51 59.8312C155.224 57.4673 154.409 55.4906 153.064 53.9011C155.428 52.7192 157.222 53.0045 158.444 54.757C159.585 56.3873 159.769 58.3436 158.994 60.6259C158.098 63.3566 156.162 65.1091 153.187 65.8835C152.249 66.128 151.251 66.2707 150.191 66.3114C143.874 66.3114 140.715 62.8064 140.715 55.7963C140.715 54.6959 140.715 53.2286 140.715 51.3946C140.756 49.5198 140.756 48.1952 140.715 47.4209C140.715 46.6465 140.695 45.6072 140.654 44.303C140.654 42.9988 140.613 42.041 140.532 41.4297C140.491 40.8183 140.41 40.1051 140.287 39.29C140.165 38.4748 140.002 37.8023 139.798 37.2725C139.594 36.7019 138.942 35.016 138.342 34.155Z" fill="white"/>
<path d="M177.302 51.0278C177.343 49.316 177.363 48.0933 177.363 47.3597C177.281 47.4005 177.057 47.6043 176.69 47.9711C176.364 48.3379 176.14 48.5824 176.018 48.7047C175.936 48.7862 175.733 49.0104 175.407 49.3772C175.121 49.7032 174.918 49.9681 174.795 50.1719C174.673 50.3349 174.469 50.5999 174.184 50.9667C173.899 51.2927 173.695 51.578 173.573 51.8225C173.45 52.0671 173.287 52.3931 173.084 52.8007C172.88 53.1675 172.717 53.5139 172.594 53.84C172.472 54.166 172.35 54.5328 172.228 54.9404C172.146 55.348 172.065 55.7555 171.983 56.1631C171.82 57.1413 171.84 57.9156 172.044 58.4862C172.248 59.0568 172.574 59.3421 173.022 59.3421C173.919 59.2606 174.693 58.5066 175.346 57.0801C176.038 55.6129 176.69 53.5954 177.302 51.0278ZM177.302 56.102C176.894 57.5284 176.466 58.7715 176.018 59.8312C175.61 60.8501 175.04 61.9098 174.306 63.0102C173.613 64.1106 172.717 64.9665 171.616 65.5778C170.557 66.1484 169.314 66.4337 167.887 66.4337C165.605 66.4337 163.791 65.639 162.446 64.0495C161.142 62.4192 160.551 60.5037 160.673 58.3028C160.836 56.0612 161.713 54.1253 163.302 52.495C164.443 51.3131 165.87 50.2942 167.581 49.4383C169.293 48.5417 170.801 47.8896 172.105 47.482C173.45 47.0744 174.693 46.4631 175.835 45.648C177.017 44.7921 177.771 43.712 178.097 42.4078C178.423 41.0629 178.361 39.8198 177.913 38.6786C177.506 37.4967 176.609 36.8446 175.223 36.7223C174.53 36.6815 173.838 36.8649 173.145 37.2725C172.493 37.6801 171.983 38.2099 171.616 38.862C171.29 39.4734 171.229 40.2477 171.433 41.1851C171.637 42.0818 172.187 42.9784 173.084 43.875C172.228 44.9347 171.066 45.648 169.599 46.0148C168.132 46.3408 166.726 46.1778 165.381 45.5257C164.076 44.8736 163.241 43.7732 162.874 42.2244C162.589 40.0236 163.913 38.1284 166.848 36.5389C170.068 34.8271 173.634 34.2362 177.546 34.766C182.233 35.3366 185.392 37.4355 187.022 41.0629C187.715 42.6116 188.062 44.3845 188.062 46.3816L188.123 57.6303C188.123 59.7904 188.326 61.4207 188.734 62.5211C189.142 63.6215 189.794 64.0902 190.69 63.9272C191.872 63.5196 192.321 62.1543 192.035 59.8312C191.791 57.4673 190.996 55.4906 189.651 53.9011C191.974 52.7192 193.767 53.0045 195.031 54.757C196.131 56.3873 196.294 58.3436 195.52 60.6259C194.623 63.3566 192.708 65.1091 189.773 65.8835C188.836 66.1688 187.817 66.3114 186.717 66.3114C180.522 66.3114 177.383 62.9083 177.302 56.102Z" fill="white"/>
<path d="M43.6104 27.2258C42.7137 30.038 42.245 36.5794 42.2043 46.85C42.1635 57.0798 42.6322 63.6212 43.6104 66.4742H29.7939C30.9759 63.6212 31.5668 57.6912 31.5668 48.684C31.5668 39.6768 30.9759 33.9302 29.7939 31.4441C31.2204 31.2403 32.8099 30.9346 34.5624 30.527C36.3557 30.0787 38.0675 29.5693 39.6977 28.9987C41.328 28.3873 42.6322 27.7964 43.6104 27.2258Z" fill="white"/>
<path d="M13.9387 66.5471H0C1.05967 63.0013 1.5895 56.195 1.5895 46.1281C1.63026 36.0613 1.10042 29.1123 0 25.2812H13.9387C13.4496 26.7485 13.0624 28.9085 12.7771 31.7615C14.4074 28.0119 16.3841 25.8314 18.7072 25.2201C20.908 24.6495 22.9662 25.0571 24.8818 26.4428C26.7973 27.7877 28.0812 29.8052 28.7333 32.4951C29.4261 35.185 29.5484 37.875 29.1001 40.5649C28.6517 43.2548 27.857 45.5983 26.7158 47.5954C25.1671 50.326 23.17 52.4657 20.7246 54.0145C18.2792 55.5225 15.5078 56.0727 12.4103 55.6651C12.7364 60.8004 13.2458 64.4277 13.9387 66.5471ZM12.3492 54.3202C14.4685 52.4454 16.1599 49.6943 17.4234 46.067C18.7276 42.3989 19.2574 39.118 19.0129 36.2243C18.7683 33.3306 17.7494 31.9245 15.9561 32.006C15.1002 32.0468 14.3463 32.6378 13.6941 33.7789C13.042 34.8794 12.5733 36.3466 12.2881 38.1806C12.0028 43.5605 12.0231 48.9403 12.3492 54.3202Z" fill="white"/>
<path d="M164.174 0V4.04845C164.174 23.5357 153.294 32.3876 139.874 32.3876H136.023C136.452 26.2906 138.352 22.6005 143.309 18.216C145.747 16.0602 145.54 14.8153 144.339 15.5298C136.07 20.4487 131.961 27.0963 131.779 37.7113L131.773 38.4603H127.723C127.723 35.7012 127.958 33.1973 128.423 30.9059C127.958 28.2865 127.723 24.732 127.723 20.2422C127.723 9.06245 136.788 0 147.972 0C152.022 0 156.074 2.02422 164.174 0Z" fill="white"/>
</svg>
