<svg width="30" height="31" viewBox="0 0 30 31" fill="none" xmlns="http://www.w3.org/2000/svg">
<path d="M24.0715 17.7506C22.9475 18.4338 21.6567 18.7931 20.3414 18.7889C19.2395 18.7801 18.1501 18.5548 17.1351 18.1256C16.3529 19.2299 15.9343 20.5505 15.9375 21.9037V25.3596C15.9378 25.4881 15.9116 25.6153 15.8607 25.7333C15.8097 25.8513 15.7351 25.9576 15.6413 26.0455C15.5476 26.1334 15.4368 26.2011 15.3157 26.2444C15.1947 26.2877 15.0661 26.3056 14.9379 26.2971C14.6969 26.2761 14.4728 26.1648 14.3104 25.9855C14.1481 25.8062 14.0595 25.5722 14.0625 25.3303V23.8725L9.5367 19.3467C8.86393 19.5977 8.1524 19.729 7.43436 19.7346C6.44585 19.737 5.47585 19.4666 4.63123 18.953C2.07772 17.4014 0.703108 13.8307 0.969123 9.39748C0.982517 9.16813 1.07966 8.95168 1.24212 8.78923C1.40457 8.62677 1.62102 8.52963 1.85037 8.51623C6.28358 8.2549 9.85428 9.62483 11.4012 12.1783C12.0089 13.1792 12.2742 14.3508 12.157 15.5158C12.1497 15.6061 12.1164 15.6923 12.0612 15.7641C12.006 15.8358 11.9311 15.8901 11.8457 15.9202C11.7603 15.9503 11.668 15.955 11.5799 15.9338C11.4919 15.9126 11.4119 15.8663 11.3496 15.8006L9.09959 13.4451C8.92235 13.2767 8.68633 13.1843 8.44187 13.1874C8.1974 13.1905 7.96383 13.289 7.79096 13.4619C7.61808 13.6348 7.51957 13.8683 7.51644 14.1128C7.51331 14.3573 7.60581 14.5933 7.7742 14.7705L14.0883 21.2451C14.0953 21.1537 14.1035 21.0623 14.1129 20.9721C14.3179 19.2339 15.0849 17.6102 16.2972 16.3479L22.2258 10.083C22.4017 9.90727 22.5006 9.66883 22.5007 9.42016C22.5008 9.17149 22.4021 8.93297 22.2263 8.75705C22.0506 8.58114 21.8122 8.48225 21.5635 8.48214C21.3148 8.48203 21.0763 8.58071 20.9004 8.75647L15.1582 14.8291C15.1007 14.89 15.028 14.9344 14.9475 14.9576C14.8671 14.9809 14.7819 14.9822 14.7008 14.9614C14.6197 14.9406 14.5457 14.8984 14.4864 14.8393C14.4271 14.7802 14.3847 14.7063 14.3637 14.6252C13.8082 12.5768 14.0531 10.5377 15.1137 8.78694C17.2066 5.33225 22.0769 3.48303 28.1426 3.83928C28.3719 3.85267 28.5884 3.94982 28.7508 4.11227C28.9133 4.27473 29.0104 4.49118 29.0238 4.72053C29.3754 10.7873 27.5262 15.6576 24.0715 17.7506Z" fill="black"/>
</svg>
