<svg width="30" height="31" viewBox="0 0 30 31" fill="none" xmlns="http://www.w3.org/2000/svg">
<path d="M26.25 14.4221L28.125 16.2971L19.3875 25.0471L13.75 19.4221L15.625 17.5471L19.3875 21.2971L26.25 14.4221Z" fill="black"/>
<path opacity="0.3" d="M21.25 6.29709V10.0471H8.75V6.29709H6.25V23.7971H14.6L10.2125 19.4221L15.625 14.0096L19.3875 17.7596L23.75 13.3846V6.29709H21.25Z" fill="black"/>
<path d="M6.25 23.7971V6.29709H8.75V10.0471H21.25V6.29709H23.75V13.3846L26.25 10.8846V6.29709C26.25 4.92209 25.125 3.79709 23.75 3.79709H18.525C18 2.34709 16.625 1.29709 15 1.29709C13.375 1.29709 12 2.34709 11.475 3.79709H6.25C4.875 3.79709 3.75 4.92209 3.75 6.29709V23.7971C3.75 25.1721 4.875 26.2971 6.25 26.2971H17.1L14.6 23.7971H6.25ZM15 3.79709C15.6875 3.79709 16.25 4.35959 16.25 5.04709C16.25 5.73459 15.6875 6.29709 15 6.29709C14.3125 6.29709 13.75 5.73459 13.75 5.04709C13.75 4.35959 14.3125 3.79709 15 3.79709Z" fill="black"/>
</svg>
