<svg width="50" height="50" viewBox="0 0 50 50" fill="none" xmlns="http://www.w3.org/2000/svg">
<rect width="50" height="50" rx="5" fill="#F4F9F5"/>
<path d="M27.8125 36.75C27.3333 37.2292 26.7396 37.4688 26.0312 37.4688C25.3229 37.4688 24.7292 37.2292 24.25 36.75L13.25 25.75C13.0208 25.5208 12.8383 25.25 12.7025 24.9375C12.5667 24.625 12.4992 24.2917 12.5 23.9375V15C12.5 14.3125 12.745 13.7238 13.235 13.2338C13.725 12.7438 14.3133 12.4992 15 12.5H23.9375C24.2917 12.5 24.625 12.5679 24.9375 12.7038C25.25 12.8396 25.5208 13.0217 25.75 13.25L36.75 24.2813C37.2292 24.7604 37.4688 25.3492 37.4688 26.0475C37.4688 26.7458 37.2292 27.3342 36.75 27.8125L27.8125 36.75ZM18.125 20C18.6458 20 19.0888 19.8175 19.4538 19.4525C19.8188 19.0875 20.0008 18.645 20 18.125C20 17.6042 19.8175 17.1613 19.4525 16.7963C19.0875 16.4313 18.645 16.2492 18.125 16.25C17.6042 16.25 17.1612 16.4325 16.7962 16.7975C16.4312 17.1625 16.2492 17.605 16.25 18.125C16.25 18.6458 16.4325 19.0888 16.7975 19.4538C17.1625 19.8188 17.605 20.0008 18.125 20Z" fill="#0A6611"/>
</svg>
