<svg width="30" height="31" viewBox="0 0 30 31" fill="none" xmlns="http://www.w3.org/2000/svg">
<path d="M20 21.2971V23.7971H2.5V21.2971C2.5 21.2971 2.5 16.2971 11.25 16.2971C20 16.2971 20 21.2971 20 21.2971ZM15.625 9.42209C15.625 8.55679 15.3684 7.71093 14.8877 6.99147C14.4069 6.272 13.7237 5.71125 12.9242 5.38011C12.1248 5.04898 11.2451 4.96234 10.3965 5.13115C9.54781 5.29996 8.76826 5.71664 8.15641 6.32849C7.54455 6.94035 7.12787 7.7199 6.95906 8.56857C6.79025 9.41723 6.87689 10.2969 7.20803 11.0963C7.53916 11.8958 8.09992 12.579 8.81938 13.0598C9.53885 13.5405 10.3847 13.7971 11.25 13.7971C12.4103 13.7971 13.5231 13.3361 14.3436 12.5157C15.1641 11.6952 15.625 10.5824 15.625 9.42209ZM19.925 16.2971C20.6934 16.8918 21.3222 17.6476 21.7671 18.5115C22.212 19.3753 22.4621 20.3262 22.5 21.2971V23.7971H27.5V21.2971C27.5 21.2971 27.5 16.7596 19.925 16.2971ZM18.75 5.04709C17.8896 5.04229 17.0481 5.29953 16.3375 5.78459C17.0968 6.84551 17.5051 8.11744 17.5051 9.42209C17.5051 10.7267 17.0968 11.9987 16.3375 13.0596C17.0481 13.5446 17.8896 13.8019 18.75 13.7971C19.9103 13.7971 21.0231 13.3361 21.8436 12.5157C22.6641 11.6952 23.125 10.5824 23.125 9.42209C23.125 8.26176 22.6641 7.14897 21.8436 6.32849C21.0231 5.50802 19.9103 5.04709 18.75 5.04709Z" fill="black"/>
</svg>
