<svg width="35" height="35" viewBox="0 0 35 35" fill="none" xmlns="http://www.w3.org/2000/svg">
<path d="M26.9792 10.8938C25.9 11.9584 25.623 13.4896 26.1334 14.8021L21.8751 19.0605V16.0417C21.8751 15.2396 21.2188 14.5834 20.4167 14.5834H18.9146C18.9584 14.3355 18.9584 14.1021 18.9584 13.8542C18.9584 9.42088 15.3709 5.83338 10.9376 5.83338C9.28554 5.83183 7.67339 6.3407 6.32163 7.29039C4.96988 8.24008 3.94454 9.58421 3.38587 11.1389C2.8272 12.6936 2.7625 14.3829 3.20061 15.9758C3.63871 17.5686 4.55823 18.9872 5.83338 20.0375V29.1667C5.83338 29.9688 6.48963 30.625 7.29172 30.625H20.4167C21.2188 30.625 21.8751 29.9688 21.8751 29.1667V23.173L28.1896 16.8584C29.5021 17.3688 31.0334 17.1063 32.0834 16.0417L26.9792 10.8938ZM5.9063 14.5834C5.87713 14.3355 5.83338 14.1021 5.83338 13.8542C5.83338 11.0396 8.12297 8.75004 10.9376 8.75004C13.7521 8.75004 16.0417 11.0396 16.0417 13.8542C16.0417 14.1021 15.998 14.3355 15.9688 14.5834M18.9584 27.7084H8.75005V17.5H18.9584V27.7084Z" fill="none"/>
</svg>
